# File created by Blade
# Date/Time:  Thu Jan 22 19:34:15 2015
# Frame Rate: 120.000 fps
#------------------------------------------------------
:FULLY-SPECIFIED
:DEGREES
1343
root -4.650654 26.563045 -6.137780 32.117669 -34.782618 1.883399
RightUpLeg -75.747483 -12.085702 -14.699623
RightLeg 60.135333 -0.000000 -0.000000
RightFoot -21.345317 7.107575 8.096150
RightToeBase 3.902170 -0.000000 -0.000000
LeftUpLeg -19.776248 23.624516 24.680621
LeftLeg 27.535097 -0.000000 -0.000000
LeftFoot -25.753173 7.176854 -43.332149
LeftToeBase 12.735762 -0.000000 -0.000000
Spine 3.163529 -8.900709 4.589500
RightShoulder -13.388946 -11.217521 -12.464959
RightArm 23.647860 0.689839 69.146932
RightForeArm -10.618181 -0.000000 48.752681
RightHand 17.821963 0.000000 -8.221387
RightHandThumb1 -24.326973 -0.000000 -32.862282
LeftShoulder -13.383495 -4.480278 20.795233
LeftArm 19.271694 18.203318 -90.083121
LeftForeArm 17.582829 -0.000000 29.106662
LeftHand -1.834822 0.000000 -2.865620
LeftHandThumb1 -26.253704 0.000000 33.147579
Head -56.722886 10.021191 -18.274966
1344
root -4.722602 26.513727 -6.135155 31.952817 -34.979881 2.004388
RightUpLeg -75.977593 -12.002347 -14.722194
RightLeg 60.710336 -0.000000 -0.000000
RightFoot -21.684405 7.128192 7.715073
RightToeBase 4.026081 -0.000000 -0.000000
LeftUpLeg -19.558694 23.501491 24.782848
LeftLeg 27.744304 -0.000000 -0.000000
LeftFoot -25.603726 7.253510 -43.596912
LeftToeBase 12.527442 -0.000000 -0.000000
Spine 3.013361 -8.892119 4.663547
RightShoulder -13.312854 -10.972249 -12.749444
RightArm 23.966276 1.340440 68.614327
RightForeArm -10.639446 -0.000000 49.091454
RightHand 17.782384 -0.000000 -8.227894
RightHandThumb1 -24.326973 -0.000000 -32.862282
LeftShoulder -13.417173 -4.551230 21.046457
LeftArm 19.221342 18.084187 -90.227522
LeftForeArm 17.804962 0.000000 29.489014
LeftHand -2.005645 0.000000 -2.876693
LeftHandThumb1 -26.253704 0.000000 33.147579
Head -56.813883 10.153157 -18.520667
1345
root -4.798725 26.465779 -6.132293 31.753165 -35.233462 2.114043
RightUpLeg -76.175248 -11.832086 -14.781974
RightLeg 61.284077 -0.000000 -0.000000
RightFoot -21.967652 7.137771 7.467629
RightToeBase 4.016208 -0.000000 -0.000000
LeftUpLeg -19.254508 23.397784 24.885234
LeftLeg 27.902614 -0.000000 -0.000000
LeftFoot -25.489518 7.402981 -43.920710
LeftToeBase 12.317435 -0.000000 -0.000000
Spine 2.934558 -8.811728 4.712417
RightShoulder -13.189405 -10.691097 -13.082081
RightArm 24.257751 1.991504 68.085742
RightForeArm -10.562652 -0.000000 49.386175
RightHand 17.718093 -0.000000 -8.391474
RightHandThumb1 -24.326973 -0.000000 -32.862282
LeftShoulder -13.419249 -4.625343 21.291206
LeftArm 19.148675 17.870476 -90.363814
LeftForeArm 18.158621 -0.000000 29.891044
LeftHand -1.967790 -0.000000 -3.198890
LeftHandThumb1 -26.253704 0.000000 33.147579
Head -56.923001 10.305418 -18.783714
1346
root -4.868440 26.424087 -6.141734 31.688082 -35.392804 2.259998
RightUpLeg -76.497388 -11.792684 -14.782167
RightLeg 61.812124 -0.000000 -0.000000
RightFoot -22.207818 7.124628 7.231785
RightToeBase 3.988273 -0.000000 -0.000000
LeftUpLeg -19.255046 23.281795 24.925223
LeftLeg 28.187595 -0.000000 -0.000000
LeftFoot -25.304297 7.593786 -44.217239
LeftToeBase 12.026242 -0.000000 -0.000000
Spine 2.689607 -8.798480 4.853011
RightShoulder -13.016666 -10.344406 -13.516768
RightArm 24.481676 2.689947 67.584062
RightForeArm -10.575963 -0.000000 49.713287
RightHand 17.663437 -0.000000 -8.453007
RightHandThumb1 -24.326973 -0.000000 -32.862282
LeftShoulder -13.490316 -4.567286 21.496169
LeftArm 19.206483 17.668521 -90.450998
LeftForeArm 18.605437 -0.000000 30.319161
LeftHand -2.190414 -0.000000 -3.456448
LeftHandThumb1 -26.253704 0.000000 33.147579
Head -56.992571 10.474521 -19.102474
1347
root -4.947082 26.384564 -6.146777 31.550700 -35.656209 2.408153
RightUpLeg -76.760224 -11.634918 -14.852199
RightLeg 62.325408 -0.000000 -0.000000
RightFoot -22.460708 7.097056 6.981321
RightToeBase 3.969683 -0.000000 -0.000000
LeftUpLeg -19.064350 23.255435 24.961676
LeftLeg 28.343463 -0.000000 -0.000000
LeftFoot -25.049725 7.858137 -44.467329
LeftToeBase 11.878654 -0.000000 -0.000000
Spine 2.538830 -8.712819 4.911521
RightShoulder -12.836749 -10.069369 -13.877483
RightArm 24.850577 3.387281 66.998077
RightForeArm -10.553721 -0.000000 50.027030
RightHand 17.623123 -0.000000 -8.382194
RightHandThumb1 -24.326973 -0.000000 -32.862282
LeftShoulder -13.529934 -4.581530 21.724988
LeftArm 19.141413 17.580607 -90.435343
LeftForeArm 18.769007 0.000000 30.826446
LeftHand -2.573816 -0.000000 -3.421546
LeftHandThumb1 -26.253704 0.000000 33.147579
Head -57.081473 10.698421 -19.432812
1348
root -5.035198 26.348264 -6.152914 31.397326 -35.891086 2.534088
RightUpLeg -76.970449 -11.445105 -14.919754
RightLeg 62.832101 -0.000000 -0.000000
RightFoot -22.709413 7.071329 6.782994
RightToeBase 3.955983 -0.000000 -0.000000
LeftUpLeg -18.839663 23.254683 25.054334
LeftLeg 28.478018 -0.000000 -0.000000
LeftFoot -24.679985 8.151955 -44.608081
LeftToeBase 11.781839 -0.000000 -0.000000
Spine 2.434213 -8.636307 5.009105
RightShoulder -12.634904 -9.675053 -14.279526
RightArm 25.143241 4.036733 66.410485
RightForeArm -10.461855 -0.000000 50.325988
RightHand 17.732139 -0.000000 -8.515954
RightHandThumb1 -24.326973 -0.000000 -32.862282
LeftShoulder -13.624403 -4.560305 21.916374
LeftArm 19.128141 17.384547 -90.428149
LeftForeArm 19.146840 -0.000000 31.255384
LeftHand -2.678923 0.000000 -3.628552
LeftHandThumb1 -26.253704 0.000000 33.147579
Head -57.185187 10.927502 -19.777820
1349
root -5.127321 26.316062 -6.157324 31.198261 -36.166427 2.723541
RightUpLeg -77.167868 -11.237640 -15.061881
RightLeg 63.320876 -0.000000 -0.000000
RightFoot -22.960811 7.062338 6.602759
RightToeBase 3.933008 -0.000000 -0.000000
LeftUpLeg -18.566454 23.255411 25.096349
LeftLeg 28.541934 -0.000000 -0.000000
LeftFoot -24.207749 8.522154 -44.688273
LeftToeBase 11.537235 -0.000000 -0.000000
Spine 2.335373 -8.519432 5.023791
RightShoulder -12.424590 -9.290944 -14.692956
RightArm 25.441730 4.736783 65.896515
RightForeArm -10.418203 -0.000000 50.626573
RightHand 17.738893 -0.000000 -8.479927
RightHandThumb1 -24.326973 -0.000000 -32.862282
LeftShoulder -13.669091 -4.527125 22.094753
LeftArm 19.054506 17.070611 -90.402472
LeftForeArm 19.665863 -0.000000 31.713673
LeftHand -2.595012 -0.000000 -3.903021
LeftHandThumb1 -26.253704 0.000000 33.147579
Head -57.261500 11.171775 -20.116702
1350
root -5.222926 26.290620 -6.162705 30.966367 -36.438291 2.965877
RightUpLeg -77.326577 -11.035481 -15.268462
RightLeg 63.771209 -0.000000 -0.000000
RightFoot -23.234099 7.099741 6.444509
RightToeBase 4.011084 -0.000000 -0.000000
LeftUpLeg -18.280807 23.264935 25.102876
LeftLeg 28.524655 -0.000000 -0.000000
LeftFoot -23.630560 8.976529 -44.805813
LeftToeBase 11.286698 -0.000000 -0.000000
Spine 2.240956 -8.402194 5.008412
RightShoulder -12.247772 -8.995866 -15.083154
RightArm 25.905923 5.418549 65.374457
RightForeArm -10.406330 -0.000000 50.839959
RightHand 17.905624 0.000000 -8.425022
RightHandThumb1 -24.326973 -0.000000 -32.862282
LeftShoulder -13.702401 -4.506259 22.265028
LeftArm 18.949446 16.699035 -90.372450
LeftForeArm 20.209773 -0.000000 32.170438
LeftHand -2.634892 -0.000000 -4.290034
LeftHandThumb1 -26.253704 0.000000 33.147579
Head -57.307719 11.386236 -20.418692
1351
root -5.326109 26.271310 -6.169919 30.742039 -36.670850 3.201785
RightUpLeg -77.451806 -10.841394 -15.442181
RightLeg 64.203496 -0.000000 -0.000000
RightFoot -23.513385 7.091701 6.267118
RightToeBase 4.002601 -0.000000 -0.000000
LeftUpLeg -17.991003 23.267721 25.147906
LeftLeg 28.427412 -0.000000 -0.000000
LeftFoot -22.947693 9.435593 -45.039684
LeftToeBase 11.081657 -0.000000 -0.000000
Spine 2.134734 -8.312709 5.028159
RightShoulder -12.034386 -8.709225 -15.473254
RightArm 26.396192 6.058277 64.813327
RightForeArm -10.290957 -0.000000 51.034114
RightHand 17.803195 -0.000000 -8.715212
RightHandThumb1 -24.326973 -0.000000 -32.862282
LeftShoulder -13.777547 -4.439653 22.371343
LeftArm 18.927378 16.346287 -90.263656
LeftForeArm 20.689538 0.000000 32.483911
LeftHand -2.606703 0.000000 -4.409170
LeftHandThumb1 -26.253704 0.000000 33.147579
Head -57.322349 11.630821 -20.731498
1352
root -5.425077 26.256918 -6.176270 30.464972 -36.939063 3.569930
RightUpLeg -77.598858 -10.701873 -15.727373
RightLeg 64.610540 -0.000000 -0.000000
RightFoot -23.782943 7.179973 6.146015
RightToeBase 4.017396 -0.000000 -0.000000
LeftUpLeg -17.721333 23.232100 25.073165
LeftLeg 28.297300 -0.000000 -0.000000
LeftFoot -22.059506 10.035237 -45.003408
LeftToeBase 10.521973 -0.000000 -0.000000
Spine 1.989555 -8.225937 4.933659
RightShoulder -11.741180 -8.301619 -15.977931
RightArm 26.714266 6.694981 64.351833
RightForeArm -10.259589 0.000000 51.209211
RightHand 18.031810 0.000000 -8.793816
RightHandThumb1 -24.326973 -0.000000 -32.862282
LeftShoulder -13.910626 -4.233509 22.460564
LeftArm 19.079339 16.106795 -90.035720
LeftForeArm 20.959459 -0.000000 32.704296
LeftHand -2.678251 -0.000000 -4.452849
LeftHandThumb1 -26.253704 0.000000 33.147579
Head -57.257173 11.832112 -20.993015
1353
root -5.540209 26.252850 -6.182702 30.175269 -37.101159 3.851113
RightUpLeg -77.605012 -10.551511 -15.898171
RightLeg 64.982327 -0.000000 -0.000000
RightFoot -24.104947 7.180064 5.937761
RightToeBase 4.132515 -0.000000 -0.000000
LeftUpLeg -17.403098 23.163812 25.157745
LeftLeg 28.120717 -0.000000 -0.000000
LeftFoot -21.053792 10.626431 -45.061313
LeftToeBase 9.862005 -0.000000 -0.000000
Spine 1.916662 -8.151881 4.976052
RightShoulder -11.495863 -7.936531 -16.449875
RightArm 27.137680 7.424095 63.983970
RightForeArm -10.370802 -0.000000 51.397760
RightHand 17.896397 -0.000000 -8.736966
RightHandThumb1 -24.326973 -0.000000 -32.862282
LeftShoulder -14.011711 -4.237743 22.504768
LeftArm 18.981404 15.826241 -89.817539
LeftForeArm 21.249174 -0.000000 32.900666
LeftHand -2.551067 0.000000 -4.575967
LeftHandThumb1 -26.253704 0.000000 33.147579
Head -57.208342 12.008497 -21.317788
1354
root -5.660049 26.258982 -6.193179 29.890651 -37.263424 4.184999
RightUpLeg -77.609168 -10.406682 -16.096584
RightLeg 65.293995 -0.000000 -0.000000
RightFoot -24.434804 7.172427 5.699769
RightToeBase 4.194747 -0.000000 -0.000000
LeftUpLeg -17.130511 23.174402 25.175339
LeftLeg 27.847427 -0.000000 -0.000000
LeftFoot -19.944957 11.257910 -45.209530
LeftToeBase 9.241908 -0.000000 -0.000000
Spine 1.805407 -8.070855 4.953100
RightShoulder -11.208274 -7.532969 -16.894688
RightArm 27.472860 8.023950 63.503162
RightForeArm -10.361723 -0.000000 51.581019
RightHand 17.673036 -0.000000 -9.160463
RightHandThumb1 -24.326973 -0.000000 -32.862282
LeftShoulder -14.161298 -4.089656 22.492016
LeftArm 19.065969 15.653403 -89.464438
LeftForeArm 21.348559 -0.000000 33.035349
LeftHand -2.672619 -0.000000 -4.455440
LeftHandThumb1 -26.253704 0.000000 33.147579
Head -57.162995 12.185807 -21.596039
